<svg id="svg" version="1.1" xmlns="http://www.w3.org/2000/svg" xmlns:xlink="http://www.w3.org/1999/xlink" width="400" height="367.6300578034682" viewBox="0, 0, 400,367.6300578034682"><g id="svgg"><path id="path0" d="M278.074 217.463 C 277.958 217.767,277.492 218.015,277.040 218.015 C 276.141 218.015,274.837 219.199,275.264 219.627 C 275.411 219.773,275.288 220.042,274.992 220.225 C 274.555 220.496,274.543 220.645,274.926 221.029 C 275.226 221.329,275.493 221.368,275.659 221.137 C 275.802 220.936,276.904 220.727,278.108 220.673 C 279.312 220.618,280.410 220.390,280.548 220.166 C 280.687 219.942,280.962 219.859,281.160 219.981 C 281.358 220.103,281.821 219.870,282.189 219.464 C 282.557 219.057,283.099 218.816,283.393 218.929 C 284.315 219.283,283.103 218.041,281.938 217.439 C 280.578 216.736,278.348 216.750,278.074 217.463 M260.662 217.831 C 260.662 218.137,260.335 218.382,259.926 218.382 C 259.522 218.382,259.191 218.217,259.191 218.015 C 259.191 217.813,259.031 217.647,258.835 217.647 C 258.639 217.647,258.574 217.894,258.689 218.195 C 258.810 218.509,258.647 218.841,258.310 218.970 C 257.986 219.094,257.721 219.441,257.721 219.741 C 257.721 220.172,257.416 220.234,256.250 220.037 C 254.903 219.809,254.779 219.857,254.779 220.601 C 254.779 221.248,254.677 221.328,254.275 220.995 C 253.768 220.574,253.108 220.678,251.555 221.423 C 251.081 221.650,250.886 221.925,251.102 222.059 C 251.312 222.188,251.577 223.358,251.691 224.658 C 251.805 225.958,252.038 227.073,252.209 227.136 C 252.380 227.198,252.428 227.819,252.315 228.514 C 252.182 229.331,252.257 229.779,252.525 229.779 C 252.754 229.779,252.941 230.034,252.941 230.345 C 252.941 230.809,253.077 230.784,253.698 230.206 C 254.114 229.818,255.026 229.408,255.724 229.295 C 256.997 229.088,258.088 228.316,258.088 227.622 C 258.088 227.418,258.874 227.137,259.835 226.998 C 262.729 226.578,262.785 226.506,262.441 223.642 C 262.257 222.112,261.922 220.979,261.579 220.727 C 261.259 220.492,261.116 220.056,261.246 219.716 C 261.374 219.382,261.293 219.118,261.062 219.118 C 260.804 219.118,260.735 218.771,260.878 218.199 C 261.005 217.693,261.008 217.279,260.885 217.279 C 260.762 217.279,260.662 217.528,260.662 217.831 M238.971 227.622 C 238.971 227.886,238.562 227.951,237.829 227.805 C 236.911 227.621,236.729 227.684,236.898 228.126 C 237.050 228.521,236.858 228.676,236.220 228.676 C 235.731 228.676,235.160 228.966,234.951 229.320 C 234.625 229.873,234.523 229.888,234.218 229.422 C 233.914 228.959,233.828 228.973,233.616 229.524 C 233.243 230.496,231.970 231.079,231.571 230.461 C 231.325 230.080,231.197 230.158,231.023 230.790 C 230.899 231.245,230.687 231.618,230.554 231.618 C 230.421 231.618,230.376 232.296,230.455 233.126 C 230.534 233.955,230.433 234.989,230.231 235.423 C 229.493 237.007,228.950 239.298,229.174 239.881 C 229.300 240.210,229.257 240.389,229.078 240.279 C 228.900 240.168,228.665 240.308,228.557 240.589 C 228.431 240.918,228.677 241.161,229.243 241.269 C 229.728 241.362,230.037 241.296,229.930 241.123 C 229.823 240.950,229.994 240.809,230.309 240.809 C 230.624 240.809,230.882 240.632,230.882 240.416 C 230.882 240.197,231.193 240.123,231.588 240.248 C 232.093 240.408,232.362 240.258,232.532 239.721 C 232.824 238.801,233.344 238.747,233.570 239.614 C 233.670 239.994,233.756 239.828,233.781 239.207 C 233.812 238.450,233.973 238.214,234.356 238.361 C 234.731 238.505,234.821 238.389,234.660 237.969 C 234.483 237.509,234.584 237.431,235.100 237.629 C 235.514 237.788,236.028 237.650,236.450 237.268 C 236.825 236.929,237.132 236.763,237.132 236.901 C 237.132 237.039,237.587 236.922,238.143 236.641 C 238.699 236.360,239.346 236.199,239.580 236.283 C 239.815 236.367,240.139 236.221,240.301 235.959 C 240.742 235.245,241.093 231.985,240.728 231.985 C 240.554 231.985,240.460 230.971,240.519 229.732 C 240.617 227.641,240.565 227.468,239.798 227.344 C 239.343 227.271,238.971 227.396,238.971 227.622 M212.344 238.296 C 211.651 238.957,211.662 238.971,212.917 238.971 C 214.233 238.971,216.282 237.904,215.012 237.879 C 214.675 237.873,214.313 238.074,214.208 238.327 C 214.065 238.670,213.895 238.639,213.534 238.204 C 213.096 237.674,212.986 237.683,212.344 238.296 M226.798 243.474 C 226.366 244.297,226.368 244.298,227.152 243.601 C 228.029 242.823,228.109 242.647,227.586 242.647 C 227.391 242.647,227.036 243.019,226.798 243.474 M199.959 245.278 C 199.690 245.651,199.258 245.956,199.000 245.956 C 198.741 245.956,198.527 246.163,198.524 246.415 C 198.520 246.721,198.400 246.690,198.166 246.324 C 197.869 245.857,197.721 245.906,197.205 246.637 L 196.596 247.503 195.706 246.454 C 194.822 245.411,194.818 245.411,195.068 246.324 C 195.206 246.829,195.501 247.359,195.722 247.501 C 196.434 247.956,193.702 248.861,192.731 248.491 C 192.180 248.282,191.594 248.306,191.124 248.558 C 190.717 248.775,190.148 248.863,189.861 248.753 C 189.055 248.444,189.242 249.188,190.084 249.638 C 190.494 249.857,190.730 250.197,190.609 250.394 C 190.488 250.590,190.994 251.004,191.734 251.313 C 192.625 251.685,193.012 252.051,192.879 252.397 C 192.757 252.715,193.296 253.424,194.263 254.216 C 195.970 255.615,196.691 255.837,196.691 254.963 C 196.691 254.660,196.857 254.412,197.059 254.412 C 197.261 254.412,197.426 254.603,197.426 254.836 C 197.426 255.082,197.727 254.989,198.139 254.617 C 198.530 254.262,199.023 254.079,199.234 254.209 C 199.445 254.339,199.972 254.256,200.407 254.023 C 200.993 253.709,201.263 253.708,201.454 254.017 C 201.615 254.278,201.870 254.083,202.138 253.495 C 202.484 252.735,202.740 252.601,203.488 252.789 C 204.049 252.930,204.412 252.864,204.412 252.623 C 204.412 252.057,206.464 251.067,207.118 251.318 C 207.442 251.442,207.825 251.226,208.060 250.788 C 208.596 249.787,208.560 249.616,207.867 249.881 C 207.544 250.006,207.171 249.957,207.040 249.774 C 206.909 249.591,206.145 249.112,205.343 248.710 C 204.540 248.307,203.110 247.218,202.165 246.289 C 200.555 244.706,200.417 244.643,199.959 245.278 M193.617 247.610 C 193.733 247.914,193.976 248.162,194.157 248.162 C 194.338 248.162,194.485 247.914,194.485 247.610 C 194.485 247.307,194.242 247.059,193.945 247.059 C 193.616 247.059,193.488 247.274,193.617 247.610 M178.019 254.051 C 177.589 254.452,177.104 254.779,176.941 254.779 C 176.778 254.779,176.335 255.193,175.955 255.699 C 175.575 256.204,175.040 256.618,174.765 256.618 C 174.490 256.618,174.265 256.778,174.265 256.974 C 174.265 257.170,174.045 257.245,173.776 257.142 C 173.507 257.039,172.643 257.545,171.855 258.267 L 170.423 259.579 169.745 258.742 L 169.068 257.904 169.517 258.824 C 169.764 259.329,170.524 260.322,171.206 261.029 C 174.928 264.888,182.395 260.217,179.978 255.543 C 179.683 254.972,179.521 254.425,179.619 254.327 C 180.271 253.675,178.711 253.406,178.019 254.051 M157.353 264.364 C 156.981 264.633,156.937 264.818,157.220 264.935 C 157.477 265.041,157.264 265.498,156.669 266.119 C 156.135 266.676,155.559 267.062,155.388 266.978 C 155.217 266.894,154.607 267.340,154.032 267.969 C 153.310 268.760,152.791 269.037,152.349 268.867 C 151.869 268.683,151.766 268.767,151.934 269.205 C 152.114 269.675,151.922 269.769,150.949 269.692 L 149.740 269.596 150.513 270.848 C 153.181 275.165,157.437 281.120,156.444 279.145 C 156.182 278.622,158.635 276.103,159.407 276.103 C 159.693 276.103,159.926 275.938,159.926 275.735 C 159.926 275.533,160.093 275.368,160.297 275.368 C 160.502 275.368,161.188 274.871,161.823 274.265 C 162.457 273.658,163.127 273.162,163.312 273.162 C 163.496 273.162,163.544 272.996,163.419 272.794 C 163.294 272.592,163.349 272.426,163.542 272.426 C 164.187 272.426,164.392 271.199,163.802 270.869 C 163.490 270.694,163.235 270.383,163.235 270.178 C 163.235 269.794,161.462 267.273,160.908 266.871 C 160.738 266.747,160.572 266.499,160.538 266.319 C 160.505 266.140,160.023 266.017,159.467 266.047 C 158.595 266.094,158.462 265.967,158.499 265.128 C 158.526 264.505,158.602 264.386,158.709 264.798 C 158.802 265.152,159.016 265.441,159.186 265.441 C 159.355 265.441,159.452 265.152,159.401 264.798 C 159.292 264.041,158.139 263.797,157.353 264.364 " stroke="none" fill="#141ce1" fill-rule="evenodd"></path><path id="path1" d="M143.183 126.495 C 143.050 126.711,143.029 126.975,143.137 127.083 C 143.401 127.347,144.118 126.883,144.118 126.449 C 144.118 125.979,143.483 126.010,143.183 126.495 M192.547 146.967 C 192.199 147.637,192.296 190.074,192.645 190.074 C 192.889 190.074,193.015 182.661,193.015 168.382 C 193.015 156.452,192.942 146.691,192.853 146.691 C 192.763 146.691,192.626 146.815,192.547 146.967 M181.618 173.284 C 181.618 182.773,181.751 188.603,181.969 188.603 C 182.295 188.603,182.080 158.497,181.751 158.119 C 181.678 158.035,181.618 164.859,181.618 173.284 M258.456 192.151 C 258.456 192.353,258.869 192.907,259.375 193.382 C 259.881 193.857,260.294 194.080,260.294 193.878 C 260.294 193.676,259.881 193.122,259.375 192.647 C 258.869 192.172,258.456 191.949,258.456 192.151 M212.684 201.471 C 212.318 201.875,212.184 202.206,212.386 202.206 C 212.588 202.206,213.053 201.875,213.419 201.471 C 213.785 201.066,213.919 200.735,213.717 200.735 C 213.515 200.735,213.050 201.066,212.684 201.471 M159.191 225.184 C 159.191 225.487,159.357 225.735,159.559 225.735 C 159.761 225.735,159.926 225.487,159.926 225.184 C 159.926 224.881,159.761 224.632,159.559 224.632 C 159.357 224.632,159.191 224.881,159.191 225.184 M240.762 229.871 C 240.537 230.312,240.610 231.618,240.859 231.618 C 241.034 231.618,241.176 231.204,241.176 230.699 C 241.176 229.937,240.954 229.494,240.762 229.871 M240.441 236.213 C 240.441 236.517,240.607 236.765,240.809 236.765 C 241.011 236.765,241.176 236.517,241.176 236.213 C 241.176 235.910,241.011 235.662,240.809 235.662 C 240.607 235.662,240.441 235.910,240.441 236.213 M280.502 260.425 C 280.205 260.699,278.888 261.210,277.574 261.560 C 276.259 261.910,274.274 262.636,273.162 263.173 C 272.050 263.709,270.945 264.104,270.708 264.050 C 270.470 263.995,270.176 264.114,270.053 264.312 C 269.930 264.511,269.587 264.581,269.290 264.467 C 268.993 264.353,268.750 264.443,268.750 264.667 C 268.750 264.890,268.515 265.074,268.228 265.074 C 267.235 265.074,265.526 266.329,264.876 267.537 C 264.517 268.204,264.081 268.750,263.908 268.750 C 263.735 268.750,262.990 269.701,262.251 270.864 C 261.512 272.027,259.616 274.276,258.037 275.862 C 253.081 280.841,252.647 284.647,256.795 286.761 C 259.075 287.924,263.603 287.384,263.603 285.950 C 263.603 285.792,263.814 285.662,264.073 285.662 C 264.597 285.662,269.538 280.398,269.901 279.452 C 270.029 279.120,270.672 278.271,271.331 277.567 C 273.184 275.585,274.051 274.322,275.745 271.140 C 278.793 265.415,279.403 264.148,279.407 263.529 C 279.410 263.185,279.619 262.772,279.871 262.610 C 280.243 262.373,281.374 259.926,281.113 259.926 C 281.073 259.926,280.798 260.151,280.502 260.425 M232.904 292.090 C 227.233 293.988,223.189 294.738,217.096 295.025 C 214.265 295.158,209.798 295.107,207.169 294.912 C 203.185 294.617,202.341 294.643,202.096 295.073 C 201.934 295.356,201.557 295.588,201.257 295.588 C 200.957 295.588,200.617 295.836,200.501 296.140 C 200.384 296.443,200.013 296.691,199.675 296.691 C 199.337 296.691,198.734 296.915,198.335 297.189 C 197.535 297.738,194.742 299.320,192.464 300.515 C 189.389 302.128,189.501 303.309,192.728 303.309 C 193.117 303.309,193.651 303.525,193.916 303.790 C 196.346 306.220,219.426 307.280,226.711 305.295 C 227.753 305.012,228.955 304.779,229.382 304.779 C 230.445 304.779,233.088 303.929,233.088 303.587 C 233.088 303.434,233.336 303.309,233.638 303.309 C 235.775 303.309,240.213 301.040,241.072 299.510 C 243.763 294.710,238.733 290.140,232.904 292.090 " stroke="none" fill="#060b68" fill-rule="evenodd"></path><path id="path2" d="M192.279 144.323 C 192.279 145.852,192.420 147.016,192.591 146.910 C 193.059 146.620,193.131 141.544,192.666 141.544 C 192.430 141.544,192.279 142.623,192.279 144.323 M181.906 161.029 C 182.002 171.241,182.142 179.665,182.217 179.749 C 182.430 179.989,182.280 161.061,181.992 151.287 C 181.835 145.984,181.801 149.872,181.906 161.029 M192.422 161.213 C 192.423 163.842,192.481 164.869,192.552 163.496 C 192.623 162.122,192.623 159.972,192.551 158.716 C 192.480 157.461,192.422 158.585,192.422 161.213 M259.590 192.874 C 260.079 193.505,260.552 193.955,260.642 193.874 C 260.733 193.794,260.333 193.278,259.755 192.728 L 258.703 191.728 259.590 192.874 M283.241 245.583 C 283.042 245.782,282.305 246.019,281.605 246.109 C 280.904 246.200,280.290 246.306,280.239 246.345 C 280.188 246.384,279.995 246.436,279.810 246.461 C 279.625 246.487,279.349 246.631,279.197 246.783 C 279.046 246.935,278.673 247.059,278.368 247.059 C 278.064 247.059,277.554 247.282,277.235 247.554 C 276.916 247.827,275.890 248.256,274.956 248.508 C 273.408 248.925,273.217 249.103,272.814 250.494 C 272.571 251.334,272.053 252.634,271.664 253.382 C 271.275 254.129,270.956 254.924,270.956 255.148 C 270.956 255.372,270.597 256.332,270.158 257.281 C 269.720 258.231,269.379 259.297,269.400 259.651 C 269.422 260.005,269.289 260.294,269.104 260.294 C 268.920 260.294,268.097 261.640,267.276 263.286 C 265.872 266.101,265.838 266.242,266.702 265.676 C 267.208 265.344,267.875 265.074,268.186 265.074 C 268.496 265.074,268.750 264.890,268.750 264.667 C 268.750 264.443,268.993 264.353,269.290 264.467 C 269.587 264.581,269.930 264.511,270.053 264.312 C 270.176 264.114,270.470 263.995,270.708 264.050 C 270.945 264.104,272.050 263.709,273.162 263.173 C 274.274 262.636,276.259 261.905,277.574 261.548 C 280.575 260.733,281.497 260.068,281.798 258.503 C 281.928 257.820,282.184 256.993,282.366 256.664 C 283.404 254.786,285.064 245.904,284.450 245.513 C 283.864 245.140,283.672 245.151,283.241 245.583 M257.494 255.097 C 257.114 255.542,256.388 255.882,255.822 255.882 C 255.273 255.882,254.728 256.035,254.613 256.222 C 254.498 256.408,253.909 256.670,253.305 256.802 C 252.700 256.935,252.206 257.170,252.206 257.324 C 252.206 257.478,251.536 257.805,250.716 258.050 C 249.897 258.296,248.466 258.901,247.537 259.395 C 246.607 259.890,245.647 260.294,245.404 260.294 C 245.161 260.294,244.181 260.710,243.225 261.218 C 242.270 261.726,241.335 262.047,241.149 261.931 C 240.962 261.816,240.809 261.897,240.809 262.111 C 240.809 262.325,240.646 262.500,240.447 262.500 C 240.248 262.500,238.883 263.429,237.414 264.566 C 234.817 266.573,226.470 270.956,225.243 270.956 C 224.907 270.956,224.632 271.102,224.632 271.281 C 224.632 271.662,223.558 272.063,221.507 272.447 C 219.606 272.803,216.928 273.509,215.993 273.900 C 215.588 274.069,214.763 274.316,214.158 274.449 C 213.554 274.582,212.974 274.811,212.871 274.957 C 212.529 275.443,209.548 276.838,208.852 276.838 C 208.475 276.838,208.084 277.054,207.983 277.318 C 207.882 277.582,207.119 278.022,206.289 278.296 C 205.459 278.570,204.779 278.893,204.779 279.013 C 204.779 279.282,203.108 280.021,201.773 280.343 C 201.231 280.474,200.699 280.814,200.590 281.099 C 200.480 281.384,200.096 281.627,199.736 281.638 C 199.376 281.649,199.890 281.986,200.879 282.387 C 201.868 282.789,202.960 283.069,203.304 283.011 C 203.649 282.952,204.230 283.153,204.595 283.456 C 205.460 284.175,219.118 284.529,219.118 283.833 C 219.118 283.574,219.406 283.498,219.850 283.639 C 220.252 283.766,220.773 283.753,221.008 283.608 C 221.242 283.463,222.016 283.292,222.728 283.228 C 223.440 283.164,224.141 282.920,224.286 282.685 C 224.431 282.451,224.728 282.369,224.946 282.504 C 225.415 282.793,229.495 281.677,229.821 281.170 C 229.944 280.977,230.150 280.830,230.278 280.842 C 230.885 280.901,232.721 280.394,232.721 280.167 C 232.721 280.027,233.796 279.433,235.110 278.846 C 236.425 278.260,237.500 277.579,237.500 277.332 C 237.500 277.086,237.790 276.902,238.143 276.925 C 241.068 277.110,254.779 264.393,254.779 261.496 C 254.779 261.329,255.121 260.948,255.538 260.651 C 256.643 259.863,257.765 257.897,257.502 257.211 C 257.355 256.829,257.469 256.618,257.822 256.618 C 258.461 256.618,258.862 255.437,258.450 254.770 C 258.240 254.430,257.993 254.515,257.494 255.097 M185.195 289.186 C 185.444 289.301,184.481 289.978,183.055 290.692 C 181.629 291.405,180.373 292.220,180.265 292.502 C 180.157 292.784,179.839 293.015,179.559 293.015 C 179.279 293.015,178.844 293.346,178.591 293.750 C 178.339 294.154,177.990 294.485,177.818 294.485 C 177.645 294.485,177.045 294.811,176.486 295.210 C 175.926 295.608,175.363 295.856,175.234 295.761 C 175.105 295.666,175.080 295.696,175.177 295.827 C 175.713 296.547,180.820 298.979,181.245 298.716 C 181.450 298.590,181.618 298.731,181.618 299.030 C 181.618 299.498,183.324 300.176,184.052 299.996 C 184.184 299.964,184.394 300.075,184.518 300.244 C 185.360 301.395,189.702 302.511,190.477 301.777 C 190.760 301.507,191.654 300.940,192.463 300.515 C 194.739 299.322,197.534 297.738,198.335 297.189 C 198.734 296.915,199.355 296.691,199.714 296.691 C 200.074 296.691,200.368 296.522,200.368 296.314 C 200.368 296.107,200.781 295.780,201.287 295.588 C 202.781 295.020,202.421 294.195,200.556 293.915 C 199.649 293.779,198.652 293.765,198.342 293.884 C 198.028 294.005,197.454 293.778,197.050 293.374 C 196.651 292.974,195.869 292.641,195.313 292.634 C 194.756 292.627,193.888 292.385,193.382 292.096 C 192.877 291.807,192.174 291.564,191.821 291.557 C 191.468 291.550,190.144 291.064,188.880 290.478 C 187.615 289.891,186.167 289.313,185.662 289.194 C 185.156 289.075,184.946 289.071,185.195 289.186 " stroke="none" fill="#0c129a" fill-rule="evenodd"></path><path id="path3" d="M182.141 150.368 C 182.141 154.715,182.195 156.494,182.260 154.320 C 182.325 152.146,182.325 148.589,182.260 146.415 C 182.195 144.242,182.141 146.020,182.141 150.368 M285.704 231.514 C 285.681 231.761,285.414 231.867,285.110 231.751 C 284.807 231.634,284.559 231.709,284.559 231.917 C 284.559 232.125,284.064 232.403,283.460 232.536 C 282.856 232.669,282.267 232.930,282.152 233.117 C 282.036 233.303,281.552 233.456,281.075 233.456 C 280.598 233.456,280.144 233.649,280.065 233.886 C 279.986 234.124,279.316 234.293,278.564 234.265 C 277.515 234.225,277.199 234.357,277.177 234.846 C 277.159 235.229,277.075 235.297,276.962 235.018 C 276.325 233.440,274.644 235.362,275.108 237.138 C 275.213 237.539,275.149 237.868,274.966 237.868 C 274.782 237.868,274.631 238.984,274.628 240.349 C 274.626 241.714,274.378 243.643,274.077 244.636 C 273.292 247.222,273.335 249.051,274.173 248.727 C 274.527 248.590,275.267 248.387,275.819 248.276 C 276.370 248.164,277.011 247.845,277.243 247.566 C 277.474 247.287,277.947 247.059,278.293 247.059 C 278.639 247.059,279.046 246.935,279.197 246.783 C 279.349 246.631,279.625 246.487,279.810 246.461 C 279.995 246.436,280.188 246.384,280.239 246.345 C 280.290 246.306,280.895 246.201,281.584 246.112 C 282.273 246.022,283.026 245.792,283.257 245.600 C 283.489 245.408,284.015 245.340,284.427 245.447 C 285.189 245.647,286.484 233.938,285.936 231.801 C 285.832 231.397,285.728 231.268,285.704 231.514 M262.132 239.706 C 261.841 240.110,261.392 240.441,261.135 240.441 C 260.404 240.441,257.721 241.682,257.721 242.020 C 257.721 242.187,257.555 242.221,257.353 242.096 C 257.151 241.971,256.985 242.002,256.984 242.166 C 256.984 242.329,256.482 242.481,255.868 242.503 C 255.255 242.525,254.546 242.826,254.293 243.172 C 254.039 243.519,253.673 243.755,253.479 243.698 C 253.284 243.641,252.775 243.789,252.346 244.027 C 251.918 244.265,251.468 244.360,251.347 244.239 C 251.226 244.118,250.922 244.785,250.671 245.723 C 250.420 246.660,250.084 247.426,249.924 247.426 C 249.763 247.426,249.631 247.716,249.630 248.070 C 249.629 248.424,249.381 249.187,249.079 249.766 C 248.777 250.345,248.529 251.039,248.529 251.308 C 248.529 251.577,248.213 252.018,247.826 252.289 C 247.439 252.560,246.716 253.548,246.218 254.484 C 245.176 256.443,242.293 260.279,240.869 261.598 C 240.335 262.094,240.102 262.500,240.353 262.500 C 240.604 262.500,240.809 262.325,240.809 262.111 C 240.809 261.897,240.962 261.816,241.149 261.931 C 241.335 262.047,242.270 261.726,243.225 261.218 C 244.181 260.710,245.161 260.294,245.404 260.294 C 245.647 260.294,246.607 259.890,247.537 259.395 C 248.466 258.901,249.897 258.296,250.716 258.050 C 251.536 257.805,252.206 257.478,252.206 257.324 C 252.206 257.170,252.700 256.935,253.305 256.802 C 253.909 256.670,254.498 256.408,254.613 256.222 C 254.728 256.035,255.273 255.882,255.822 255.882 C 256.388 255.882,257.114 255.542,257.494 255.097 C 258.040 254.460,258.228 254.408,258.490 254.821 C 258.667 255.102,258.815 255.248,258.819 255.147 C 258.823 255.046,259.313 253.769,259.908 252.308 C 260.982 249.673,262.237 245.259,262.091 244.630 C 262.050 244.449,262.113 244.053,262.232 243.750 C 262.606 242.799,263.135 238.971,262.893 238.971 C 262.766 238.971,262.424 239.301,262.132 239.706 M232.721 252.941 C 232.417 253.137,231.823 253.300,231.399 253.303 C 230.975 253.306,230.324 253.646,229.952 254.057 C 229.579 254.469,229.045 254.717,228.764 254.610 C 228.484 254.502,228.001 254.667,227.691 254.977 C 227.352 255.316,226.815 255.452,226.340 255.319 C 225.742 255.152,225.680 255.187,226.084 255.465 C 226.511 255.759,226.420 255.881,225.624 256.081 C 225.079 256.218,224.632 256.459,224.632 256.617 C 224.632 256.862,224.096 257.018,221.875 257.418 C 221.673 257.454,221.289 257.703,221.022 257.970 C 220.754 258.237,220.299 258.456,220.011 258.456 C 219.722 258.456,219.485 258.714,219.485 259.029 C 219.485 259.345,219.307 259.492,219.089 259.358 C 218.872 259.223,218.366 259.465,217.965 259.896 C 217.564 260.326,217.081 260.583,216.893 260.466 C 216.704 260.350,216.259 260.438,215.904 260.663 C 215.404 260.980,215.800 261.033,217.647 260.901 C 221.611 260.617,229.044 257.683,229.044 256.402 C 229.044 256.116,229.217 255.882,229.427 255.882 C 229.952 255.882,233.006 253.601,233.242 253.033 C 233.469 252.486,233.435 252.480,232.721 252.941 M197.564 269.127 C 197.341 269.350,196.641 269.546,196.006 269.564 C 195.372 269.582,194.853 269.737,194.853 269.909 C 194.853 270.080,194.605 270.221,194.301 270.221 C 193.998 270.221,193.750 270.383,193.750 270.581 C 193.750 270.780,193.336 271.046,192.831 271.173 C 192.325 271.299,191.912 271.611,191.912 271.864 C 191.912 272.151,191.582 272.261,191.038 272.157 C 190.419 272.039,189.989 272.239,189.567 272.842 C 188.886 273.813,188.770 275.368,189.378 275.368 C 189.601 275.368,189.696 275.598,189.588 275.880 C 189.356 276.485,190.788 277.941,191.615 277.941 C 191.931 277.941,192.387 278.179,192.627 278.469 C 192.868 278.759,193.550 279.103,194.143 279.234 C 194.736 279.364,195.221 279.705,195.221 279.992 C 195.221 280.280,195.434 280.515,195.694 280.515 C 195.955 280.515,196.785 280.829,197.539 281.214 C 198.956 281.936,200.296 281.864,200.609 281.048 C 200.708 280.791,201.231 280.474,201.773 280.343 C 203.108 280.021,204.779 279.282,204.779 279.013 C 204.779 278.893,205.459 278.570,206.289 278.296 C 207.119 278.022,207.882 277.582,207.983 277.318 C 208.084 277.054,208.475 276.838,208.852 276.838 C 209.548 276.838,212.529 275.443,212.871 274.957 C 212.974 274.811,213.554 274.581,214.158 274.447 C 216.573 273.912,216.183 273.727,212.132 273.488 C 207.595 273.220,205.351 272.689,203.309 271.402 C 202.601 270.956,201.746 270.590,201.409 270.590 C 201.072 270.589,200.741 270.428,200.674 270.231 C 200.607 270.035,200.138 269.828,199.632 269.772 C 199.127 269.715,198.546 269.456,198.341 269.196 C 198.070 268.852,197.858 268.833,197.564 269.127 M172.128 282.710 C 171.532 283.280,170.693 283.857,170.264 283.993 C 169.836 284.129,169.485 284.495,169.485 284.807 C 169.485 285.139,169.274 285.292,168.974 285.177 C 168.693 285.069,168.155 285.266,167.779 285.615 C 167.403 285.965,166.827 286.353,166.498 286.478 C 165.376 286.906,165.013 288.826,165.930 289.483 C 166.369 289.797,167.721 290.764,168.934 291.632 C 172.129 293.918,173.201 294.569,173.416 294.353 C 173.521 294.248,174.014 294.569,174.512 295.067 L 175.416 295.971 176.460 295.228 C 177.034 294.820,177.645 294.485,177.818 294.485 C 177.990 294.485,178.339 294.154,178.591 293.750 C 178.844 293.346,179.279 293.015,179.559 293.015 C 179.839 293.015,180.158 292.781,180.268 292.495 C 180.377 292.209,181.719 291.357,183.248 290.601 C 185.785 289.347,186.858 288.676,185.478 289.205 C 185.175 289.322,184.926 289.230,184.926 289.001 C 184.926 288.772,184.519 288.430,184.022 288.241 C 183.525 288.052,182.821 287.629,182.460 287.301 C 181.523 286.454,176.882 283.456,176.507 283.456 C 176.334 283.456,175.998 283.221,175.759 282.933 C 174.732 281.695,173.283 281.606,172.128 282.710 " stroke="none" fill="#1416bc" fill-rule="evenodd"></path><path id="path4" d="M156.985 119.660 C 156.985 120.087,156.789 120.128,156.066 119.853 C 155.561 119.661,155.147 119.648,155.147 119.825 C 155.147 120.002,154.278 120.355,153.217 120.608 C 150.186 121.332,145.588 124.067,145.588 125.147 C 145.588 125.645,143.766 127.206,143.184 127.206 C 142.735 127.206,141.433 128.891,141.338 129.596 C 141.311 129.798,141.263 130.170,141.232 130.423 C 141.202 130.676,140.943 130.882,140.658 130.882 C 139.562 130.882,137.292 137.408,137.597 139.682 C 137.707 140.504,137.644 141.176,137.456 141.176 C 137.247 141.176,137.153 151.583,137.215 167.873 L 137.316 194.570 138.748 195.808 C 140.226 197.085,142.234 197.728,143.083 197.196 C 143.349 197.030,143.856 196.941,144.210 196.999 C 144.599 197.063,144.853 196.872,144.853 196.514 C 144.853 196.189,145.060 195.951,145.313 195.983 C 146.255 196.106,146.728 195.944,146.501 195.578 C 146.373 195.370,146.652 194.888,147.123 194.508 L 147.978 193.815 148.178 166.669 C 148.380 139.302,148.511 136.765,149.722 136.765 C 149.875 136.765,150.000 136.548,150.000 136.283 C 150.000 135.132,154.059 132.028,157.052 130.891 C 159.651 129.903,169.992 129.791,172.290 130.726 C 174.728 131.719,176.826 132.770,177.032 133.104 C 177.140 133.280,177.472 133.331,177.769 133.217 C 178.132 133.077,178.309 133.249,178.309 133.739 C 178.309 134.140,178.557 134.675,178.860 134.926 C 179.164 135.178,179.412 135.552,179.412 135.758 C 179.412 135.964,179.626 136.316,179.888 136.540 C 180.150 136.765,180.673 137.900,181.050 139.063 C 181.428 140.225,181.873 141.176,182.040 141.176 C 182.206 141.176,182.342 152.096,182.342 165.441 C 182.342 181.133,182.214 189.706,181.980 189.706 C 181.747 189.706,181.618 196.449,181.618 208.640 C 181.618 219.695,181.756 227.574,181.950 227.574 C 182.134 227.574,182.194 228.561,182.083 229.779 C 181.940 231.363,182.008 231.985,182.325 231.985 C 182.568 231.985,182.724 232.275,182.672 232.629 C 182.493 233.838,183.112 236.029,183.634 236.029 C 183.915 236.029,184.131 236.319,184.113 236.673 C 183.924 240.376,189.121 249.449,190.952 248.615 C 191.563 248.337,192.215 248.295,192.753 248.500 C 193.704 248.861,196.420 247.947,195.722 247.501 C 195.501 247.359,195.206 246.829,195.068 246.324 C 194.818 245.411,194.822 245.411,195.706 246.454 L 196.596 247.503 197.205 246.637 C 197.721 245.906,197.869 245.857,198.166 246.324 C 198.400 246.690,198.520 246.721,198.524 246.415 C 198.527 246.163,198.707 245.956,198.923 245.956 C 199.539 245.956,200.440 244.901,200.182 244.482 C 200.054 244.275,199.823 244.184,199.668 244.279 C 199.514 244.375,199.387 244.251,199.387 244.003 C 199.387 243.756,198.698 242.544,197.855 241.309 C 197.013 240.075,196.324 238.833,196.324 238.548 C 196.324 238.264,196.099 237.705,195.825 237.306 C 195.171 236.354,193.975 232.751,193.356 229.871 C 193.085 228.608,192.773 227.573,192.663 227.573 C 192.150 227.571,192.175 141.468,192.689 141.143 C 192.999 140.946,193.032 140.818,192.774 140.814 C 192.493 140.811,192.415 140.323,192.542 139.372 C 192.695 138.231,192.581 137.804,191.988 137.296 C 191.577 136.944,191.327 136.433,191.432 136.159 C 191.537 135.886,191.445 135.662,191.227 135.662 C 191.010 135.662,190.932 135.401,191.054 135.083 C 191.352 134.307,189.719 130.882,189.052 130.882 C 188.738 130.882,188.609 130.663,188.732 130.341 C 188.846 130.043,188.533 129.316,188.036 128.725 C 187.539 128.135,187.132 127.538,187.132 127.400 C 187.132 127.087,185.065 125.000,184.755 125.000 C 184.629 125.000,184.088 124.593,183.552 124.096 C 182.241 122.880,178.450 121.048,175.840 120.369 C 174.670 120.064,173.556 119.658,173.364 119.466 C 172.730 118.834,156.985 119.020,156.985 119.660 M162.868 142.277 C 162.868 142.524,162.621 142.631,162.320 142.516 C 161.757 142.299,159.926 144.573,159.926 145.490 C 159.926 145.746,159.761 145.956,159.559 145.956 C 158.804 145.956,159.080 217.645,159.835 217.659 C 160.417 217.669,160.422 217.713,159.890 218.118 C 158.690 219.032,158.599 224.632,159.784 224.632 C 160.470 224.632,160.437 225.704,159.743 225.970 C 159.107 226.214,158.978 228.309,159.598 228.309 C 159.822 228.309,159.910 228.557,159.794 228.860 C 159.677 229.164,159.718 229.412,159.884 229.412 C 160.050 229.412,160.283 230.859,160.402 232.629 C 160.521 234.398,160.784 236.342,160.986 236.949 C 161.188 237.555,161.541 239.003,161.769 240.165 C 161.998 241.328,162.380 242.486,162.620 242.739 C 162.859 242.992,163.071 243.695,163.090 244.301 C 163.108 244.908,163.337 245.983,163.597 246.691 C 164.532 249.232,165.630 251.657,165.901 251.777 C 166.052 251.844,166.176 252.288,166.176 252.762 C 166.176 253.236,166.425 253.872,166.728 254.175 C 167.031 254.479,167.279 254.904,167.279 255.121 C 167.279 255.337,167.425 255.515,167.602 255.515 C 167.780 255.515,168.141 256.035,168.404 256.670 C 168.668 257.306,169.240 258.211,169.676 258.682 L 170.468 259.537 171.878 258.246 C 172.653 257.536,173.507 257.039,173.776 257.142 C 174.045 257.245,174.265 257.170,174.265 256.974 C 174.265 256.778,174.490 256.618,174.765 256.618 C 175.040 256.618,175.575 256.204,175.955 255.699 C 176.335 255.193,176.778 254.779,176.941 254.779 C 177.104 254.779,177.586 254.454,178.012 254.057 C 178.439 253.659,178.928 253.421,179.100 253.527 C 179.576 253.822,179.471 253.421,178.929 252.876 C 178.663 252.608,177.996 251.438,177.447 250.276 C 176.898 249.113,176.307 248.162,176.133 248.162 C 175.959 248.162,175.714 247.612,175.588 246.939 C 175.462 246.267,175.064 245.399,174.704 245.009 C 174.344 244.620,174.030 243.971,174.005 243.566 C 173.981 243.162,173.556 241.425,173.060 239.706 C 172.565 237.987,171.952 235.754,171.698 234.743 C 171.072 232.251,169.895 219.332,170.280 219.179 C 170.450 219.112,170.588 202.887,170.588 183.124 C 170.588 144.494,170.588 144.494,168.727 142.810 C 167.795 141.966,162.868 141.519,162.868 142.277 M229.963 170.569 C 229.559 170.753,228.318 170.916,227.206 170.931 C 224.454 170.967,218.294 172.519,214.466 174.141 C 213.829 174.411,213.199 174.632,213.066 174.632 C 212.933 174.632,212.214 175.118,211.467 175.712 C 210.721 176.306,209.283 177.206,208.272 177.712 C 206.072 178.812,201.740 182.324,200.843 183.734 C 200.490 184.289,200.114 184.825,200.008 184.926 C 199.903 185.028,199.816 186.103,199.816 187.316 C 199.816 192.003,205.073 194.576,208.512 191.573 C 212.587 188.015,216.415 185.517,219.485 184.412 C 219.991 184.230,220.504 183.928,220.627 183.741 C 220.987 183.191,226.848 181.618,228.535 181.618 C 229.388 181.618,230.141 181.477,230.208 181.305 C 230.276 181.133,231.654 181.141,233.272 181.323 C 234.890 181.505,236.999 181.605,237.960 181.544 C 238.920 181.484,239.706 181.540,239.706 181.669 C 239.706 181.798,240.799 182.199,242.134 182.561 C 243.470 182.923,244.752 183.396,244.984 183.613 C 245.716 184.299,249.292 185.628,249.841 185.418 C 250.168 185.292,250.368 185.447,250.368 185.828 C 250.368 186.165,250.513 186.351,250.690 186.241 C 250.868 186.131,251.582 186.577,252.278 187.230 C 252.974 187.884,254.029 188.663,254.621 188.961 C 256.855 190.083,261.475 194.172,261.320 194.888 C 261.261 195.157,261.586 195.547,262.042 195.754 C 262.498 195.962,262.822 196.277,262.762 196.455 C 262.703 196.633,263.125 197.283,263.701 197.899 C 264.276 198.515,264.977 199.570,265.259 200.245 C 265.541 200.919,265.989 201.471,266.254 201.471 C 266.520 201.471,266.903 201.843,267.105 202.298 C 267.370 202.897,267.749 203.106,268.478 203.056 C 269.032 203.018,269.485 203.142,269.485 203.332 C 269.485 203.521,269.816 203.676,270.221 203.676 C 270.625 203.676,270.956 203.515,270.956 203.318 C 270.956 203.121,271.412 203.051,271.969 203.162 C 273.132 203.395,275.000 202.062,275.000 200.999 C 275.000 200.652,275.187 200.368,275.416 200.368 C 275.686 200.368,275.758 199.916,275.623 199.081 C 275.508 198.373,275.546 197.794,275.707 197.794 C 276.286 197.794,275.603 195.737,274.394 193.835 C 273.716 192.769,273.162 191.765,273.162 191.603 C 273.162 191.064,271.480 189.838,270.972 190.007 C 270.639 190.118,270.546 189.979,270.693 189.595 C 270.896 189.066,267.479 184.929,265.257 183.013 C 261.548 179.815,255.752 176.103,254.466 176.103 C 254.254 176.103,253.948 175.887,253.787 175.623 C 253.296 174.821,250.348 173.486,249.596 173.725 C 249.211 173.847,248.897 173.789,248.897 173.597 C 248.897 173.405,248.608 173.159,248.254 173.051 C 244.236 171.825,242.082 171.336,241.505 171.520 C 241.122 171.641,240.809 171.586,240.809 171.397 C 240.809 171.081,238.822 170.830,232.904 170.395 C 231.691 170.306,230.368 170.384,229.963 170.569 M227.206 194.525 C 227.206 194.748,226.953 194.835,226.644 194.716 C 224.529 193.904,214.007 199.083,213.977 200.950 C 213.970 201.369,211.951 203.309,211.521 203.309 C 210.955 203.309,209.990 204.518,210.174 204.998 C 210.295 205.311,210.137 205.515,209.774 205.515 C 209.445 205.515,208.972 205.967,208.724 206.521 C 208.475 207.074,207.983 207.818,207.629 208.175 C 207.067 208.741,206.899 209.285,207.017 210.161 C 207.034 210.290,206.881 210.499,206.677 210.625 C 205.187 211.546,203.374 225.368,204.744 225.368 C 204.927 225.368,204.988 226.029,204.880 226.838 C 204.751 227.796,204.826 228.309,205.094 228.309 C 205.321 228.309,205.479 228.598,205.446 228.952 C 205.351 229.977,205.940 231.985,206.335 231.985 C 206.534 231.985,206.601 232.233,206.485 232.537 C 206.368 232.840,206.398 233.088,206.551 233.088 C 206.704 233.088,206.853 233.405,206.882 233.792 C 206.932 234.460,207.217 234.871,209.245 237.210 C 210.311 238.439,211.855 238.869,212.545 238.130 C 212.978 237.667,213.101 237.675,213.499 238.192 C 213.876 238.682,214.015 238.699,214.285 238.288 C 214.496 237.969,214.905 237.881,215.422 238.045 C 218.904 239.151,219.304 230.298,215.925 226.904 C 215.240 226.216,215.241 217.533,215.925 216.846 C 216.192 216.579,216.602 215.808,216.837 215.134 C 218.090 211.530,222.511 207.306,226.584 205.819 C 229.725 204.673,229.251 204.701,237.224 205.190 C 237.780 205.225,238.235 205.375,238.235 205.526 C 238.235 205.859,240.801 207.107,241.488 207.108 C 241.760 207.108,242.159 207.494,242.374 207.966 C 242.589 208.438,242.947 208.824,243.169 208.824 C 243.391 208.824,243.780 209.154,244.032 209.559 C 244.285 209.963,244.752 210.294,245.071 210.294 C 245.389 210.294,245.581 210.500,245.497 210.752 C 245.368 211.138,247.466 214.875,248.130 215.441 C 248.508 215.764,249.632 218.387,249.632 218.946 C 249.632 219.243,249.798 219.485,250.000 219.485 C 250.202 219.485,250.368 219.826,250.368 220.242 C 250.368 220.659,250.531 220.898,250.731 220.775 C 250.939 220.646,251.001 220.793,250.876 221.121 C 250.646 221.719,251.281 221.927,251.627 221.367 C 251.947 220.850,253.817 220.618,254.320 221.033 C 254.664 221.318,254.779 221.209,254.779 220.601 C 254.779 219.857,254.903 219.809,256.250 220.037 C 257.416 220.234,257.721 220.172,257.721 219.741 C 257.721 219.441,257.986 219.094,258.310 218.970 C 258.647 218.841,258.810 218.509,258.689 218.195 C 258.574 217.894,258.639 217.647,258.835 217.647 C 259.031 217.647,259.191 217.813,259.191 218.015 C 259.191 218.217,259.522 218.382,259.926 218.382 C 260.811 218.382,260.895 217.460,260.083 216.648 C 259.708 216.273,259.640 215.986,259.890 215.831 C 260.369 215.535,258.972 211.383,257.704 209.334 C 257.217 208.548,256.711 207.655,256.579 207.350 C 255.773 205.487,249.431 199.078,247.243 197.915 C 246.232 197.377,244.991 196.719,244.485 196.452 C 243.980 196.184,243.277 196.057,242.923 196.169 C 242.525 196.295,242.279 196.182,242.279 195.872 C 242.279 194.961,237.359 194.118,232.051 194.118 C 228.754 194.118,227.206 194.248,227.206 194.525 M139.872 213.017 C 136.523 214.476,136.181 229.445,139.196 242.647 C 140.563 248.633,143.633 258.456,144.136 258.456 C 144.301 258.456,144.551 258.828,144.692 259.283 C 145.165 260.808,147.172 264.706,147.485 264.706 C 147.655 264.706,147.794 265.119,147.794 265.625 C 147.794 266.131,147.960 266.544,148.162 266.544 C 148.364 266.544,148.529 266.927,148.529 267.394 C 148.529 267.861,148.828 268.564,149.193 268.956 C 149.559 269.348,149.888 269.752,149.926 269.853 C 150.704 271.940,150.949 272.426,151.220 272.426 C 151.398 272.426,151.209 271.860,150.801 271.168 C 150.018 269.842,150.381 269.231,151.659 269.722 C 152.072 269.880,152.150 269.767,151.962 269.279 C 151.764 268.763,151.847 268.675,152.349 268.867 C 152.791 269.037,153.310 268.760,154.032 267.969 C 154.607 267.340,155.217 266.894,155.388 266.978 C 155.559 267.062,156.143 266.668,156.686 266.102 C 157.229 265.537,157.519 265.074,157.329 265.074 C 156.592 265.074,157.035 264.340,157.904 264.122 C 159.097 263.822,159.123 263.947,156.985 259.630 C 155.974 257.589,155.147 255.662,155.147 255.349 C 155.147 255.036,154.924 254.779,154.652 254.779 C 154.356 254.779,154.144 254.346,154.126 253.707 C 154.109 253.118,153.835 252.133,153.518 251.520 C 153.201 250.906,152.941 250.148,152.941 249.834 C 152.941 249.521,152.589 248.913,152.159 248.482 C 151.660 247.983,151.351 247.167,151.305 246.228 C 151.263 245.359,150.988 244.575,150.635 244.317 C 150.256 244.040,150.112 243.586,150.243 243.083 C 150.358 242.645,150.195 241.251,149.882 239.985 C 149.569 238.720,149.121 236.484,148.888 235.018 C 148.654 233.552,148.354 232.353,148.220 232.353 C 148.087 232.353,147.978 228.672,147.978 224.173 L 147.978 215.993 146.928 214.621 C 145.403 212.627,142.357 211.934,139.872 213.017 M230.055 216.787 C 228.837 216.996,227.089 219.122,227.422 219.989 C 227.549 220.320,227.470 220.588,227.245 220.588 C 226.241 220.588,227.355 225.464,228.567 226.375 C 228.901 226.626,229.072 226.933,228.947 227.058 C 228.821 227.184,229.018 228.054,229.384 228.992 C 229.813 230.096,230.033 231.569,230.006 233.162 C 229.982 234.532,230.103 235.485,230.279 235.309 C 230.452 235.136,230.534 234.234,230.460 233.306 C 230.386 232.377,230.432 231.618,230.561 231.618 C 230.691 231.618,230.899 231.245,231.023 230.790 C 231.188 230.188,231.333 230.091,231.555 230.435 C 231.948 231.043,232.994 230.642,233.506 229.686 C 233.827 229.087,233.967 229.042,234.237 229.454 C 234.513 229.874,234.639 229.850,234.951 229.320 C 235.160 228.966,235.731 228.676,236.220 228.676 C 236.858 228.676,237.050 228.521,236.898 228.126 C 236.729 227.684,236.911 227.621,237.829 227.805 C 238.574 227.954,238.971 227.887,238.971 227.612 C 238.971 227.370,239.341 227.259,239.847 227.350 C 240.561 227.480,240.689 227.380,240.540 226.810 C 240.440 226.426,240.226 226.193,240.064 226.292 C 239.903 226.392,239.659 225.770,239.521 224.910 C 238.577 219.006,235.000 215.937,230.055 216.787 M194.485 247.610 C 194.485 247.914,194.338 248.162,194.157 248.162 C 193.976 248.162,193.733 247.914,193.617 247.610 C 193.488 247.274,193.616 247.059,193.945 247.059 C 194.242 247.059,194.485 247.307,194.485 247.610 M158.499 265.165 C 158.453 266.240,158.583 266.307,159.743 265.809 C 160.453 265.503,160.451 265.492,159.678 265.467 C 159.238 265.453,158.802 265.152,158.709 264.798 C 158.606 264.402,158.525 264.543,158.499 265.165 " stroke="none" fill="#1c1ce4" fill-rule="evenodd"></path><path id="path5" d="M199.746 187.316 C 199.748 188.529,199.817 188.981,199.899 188.321 C 199.981 187.660,199.979 186.667,199.895 186.115 C 199.811 185.562,199.744 186.103,199.746 187.316 M282.177 219.477 C 281.815 219.876,281.358 220.103,281.160 219.981 C 280.962 219.859,280.687 219.942,280.548 220.166 C 280.410 220.390,279.312 220.618,278.108 220.673 C 276.904 220.727,275.715 220.964,275.466 221.199 C 275.217 221.433,274.862 221.682,274.678 221.750 C 274.478 221.824,274.530 224.635,274.804 228.676 C 275.059 232.417,275.289 235.271,275.317 235.018 C 275.345 234.766,275.685 234.559,276.072 234.559 C 276.460 234.559,276.860 234.766,276.962 235.018 C 277.075 235.297,277.159 235.229,277.177 234.846 C 277.199 234.357,277.515 234.225,278.564 234.265 C 279.316 234.293,279.986 234.124,280.065 233.886 C 280.144 233.649,280.598 233.456,281.075 233.456 C 281.552 233.456,282.036 233.303,282.152 233.117 C 282.267 232.930,282.856 232.669,283.460 232.536 C 284.064 232.403,284.559 232.125,284.559 231.917 C 284.559 231.709,284.793 231.629,285.080 231.739 C 285.989 232.088,285.990 227.708,285.082 221.480 C 284.767 219.317,283.261 218.279,282.177 219.477 M262.132 226.449 C 261.829 226.613,260.795 226.860,259.835 226.999 C 258.874 227.137,258.088 227.418,258.088 227.622 C 258.088 228.316,256.997 229.088,255.724 229.295 C 255.026 229.408,254.125 229.808,253.723 230.183 C 253.041 230.818,252.980 230.821,252.825 230.230 C 252.734 229.881,252.640 231.040,252.616 232.806 C 252.574 235.985,252.076 240.192,251.456 242.616 C 251.050 244.200,251.297 244.607,252.320 244.044 C 252.763 243.800,253.337 243.593,253.597 243.583 C 253.856 243.574,254.211 243.337,254.385 243.056 C 254.559 242.775,255.215 242.527,255.843 242.504 C 256.470 242.482,256.984 242.329,256.984 242.166 C 256.985 242.002,257.151 241.971,257.353 242.096 C 257.555 242.221,257.721 242.187,257.721 242.020 C 257.721 241.705,260.383 240.441,261.049 240.441 C 261.259 240.441,261.878 239.994,262.425 239.447 C 264.035 237.836,263.759 225.571,262.132 226.449 M240.909 233.824 C 240.909 234.733,240.981 235.106,241.068 234.651 C 241.156 234.196,241.156 233.451,241.068 232.996 C 240.981 232.541,240.909 232.914,240.909 233.824 M238.111 236.643 C 237.573 236.925,237.132 237.042,237.132 236.903 C 237.132 236.764,236.825 236.929,236.450 237.268 C 236.028 237.650,235.514 237.788,235.100 237.629 C 234.584 237.431,234.483 237.509,234.660 237.969 C 234.821 238.389,234.731 238.505,234.356 238.361 C 233.973 238.214,233.812 238.450,233.781 239.207 C 233.756 239.828,233.670 239.994,233.570 239.614 C 233.344 238.747,232.824 238.801,232.532 239.721 C 232.362 240.258,232.093 240.408,231.588 240.248 C 231.193 240.123,230.882 240.197,230.882 240.416 C 230.882 240.632,230.624 240.809,230.309 240.809 C 229.994 240.809,229.823 240.950,229.930 241.123 C 230.037 241.296,229.689 241.355,229.157 241.253 C 228.391 241.106,228.234 241.187,228.408 241.639 C 228.552 242.015,228.069 242.719,226.997 243.694 C 226.101 244.510,225.368 245.353,225.368 245.567 C 225.368 245.781,225.179 245.956,224.949 245.956 C 224.718 245.956,224.318 246.245,224.059 246.599 C 223.800 246.953,223.451 247.249,223.283 247.256 C 222.663 247.282,221.324 248.354,221.324 248.823 C 221.324 249.090,221.170 249.213,220.983 249.098 C 220.796 248.982,219.679 249.249,218.501 249.690 C 216.342 250.500,208.620 250.995,209.052 250.295 C 209.152 250.133,209.065 250.000,208.858 250.000 C 208.651 250.000,208.298 250.344,208.073 250.764 C 207.828 251.221,207.445 251.443,207.118 251.318 C 206.464 251.067,204.412 252.057,204.412 252.623 C 204.412 252.864,204.049 252.930,203.488 252.789 C 202.740 252.601,202.484 252.735,202.138 253.495 C 201.870 254.083,201.615 254.278,201.454 254.017 C 201.263 253.708,200.993 253.709,200.407 254.023 C 199.972 254.256,199.445 254.339,199.234 254.209 C 199.023 254.079,198.530 254.262,198.139 254.617 C 197.727 254.989,197.426 255.082,197.426 254.836 C 197.426 254.603,197.261 254.412,197.059 254.412 C 196.857 254.412,196.691 254.660,196.691 254.963 C 196.691 255.267,196.531 255.515,196.335 255.515 C 195.688 255.515,196.376 256.585,197.185 256.837 C 197.621 256.973,198.061 257.198,198.162 257.336 C 198.515 257.820,202.006 259.335,202.655 259.286 C 203.014 259.259,203.309 259.366,203.309 259.523 C 203.309 260.111,207.659 261.132,209.350 260.941 C 210.313 260.833,211.029 260.903,211.029 261.106 C 211.029 261.542,215.163 261.343,215.491 260.892 C 215.620 260.715,216.171 260.521,216.716 260.461 C 217.261 260.401,217.917 260.066,218.173 259.716 C 218.429 259.365,218.829 259.197,219.062 259.341 C 219.312 259.495,219.485 259.368,219.485 259.029 C 219.485 258.714,219.722 258.456,220.011 258.456 C 220.299 258.456,220.790 258.202,221.100 257.891 C 221.411 257.581,221.755 257.340,221.865 257.356 C 222.457 257.442,224.632 256.861,224.632 256.617 C 224.632 256.459,225.079 256.218,225.624 256.081 C 226.420 255.881,226.511 255.759,226.084 255.465 C 225.680 255.187,225.742 255.152,226.340 255.319 C 226.815 255.452,227.352 255.316,227.691 254.977 C 228.001 254.667,228.484 254.502,228.764 254.610 C 229.045 254.717,229.579 254.469,229.952 254.057 C 230.324 253.646,230.945 253.309,231.331 253.309 C 231.718 253.309,232.374 253.127,232.789 252.904 C 233.397 252.579,233.486 252.597,233.246 252.996 C 233.001 253.403,233.060 253.401,233.569 252.988 C 233.911 252.711,234.191 252.212,234.191 251.880 C 234.191 251.549,234.563 251.114,235.018 250.914 C 235.835 250.556,239.293 244.206,239.324 243.009 C 239.332 242.703,239.669 241.835,240.074 241.080 C 241.803 237.854,240.673 235.301,238.111 236.643 M191.661 268.193 C 189.962 268.765,188.971 270.207,188.971 272.107 C 188.971 273.675,188.978 273.683,189.567 272.842 C 189.989 272.239,190.419 272.039,191.038 272.157 C 191.582 272.261,191.912 272.151,191.912 271.864 C 191.912 271.611,192.325 271.299,192.831 271.173 C 193.336 271.046,193.750 270.780,193.750 270.581 C 193.750 270.383,193.998 270.221,194.301 270.221 C 194.605 270.221,194.853 270.080,194.853 269.909 C 194.853 269.737,195.347 269.583,195.951 269.566 C 196.555 269.549,197.219 269.429,197.428 269.301 C 198.039 268.923,197.491 268.434,196.691 268.644 C 196.206 268.770,195.956 268.655,195.956 268.303 C 195.956 267.656,193.446 267.592,191.661 268.193 M163.717 272.217 C 163.476 272.492,163.380 272.816,163.502 272.939 C 163.625 273.061,163.557 273.162,163.351 273.162 C 163.145 273.162,162.457 273.658,161.823 274.265 C 161.188 274.871,160.502 275.368,160.297 275.368 C 160.093 275.368,159.926 275.533,159.926 275.735 C 159.926 275.938,159.693 276.103,159.407 276.103 C 158.220 276.103,156.235 278.590,156.618 279.597 C 156.896 280.327,165.138 288.807,165.263 288.492 C 165.841 287.042,166.238 286.397,166.552 286.397 C 166.767 286.397,167.285 286.078,167.703 285.689 C 168.121 285.299,168.693 285.069,168.974 285.177 C 169.274 285.292,169.485 285.139,169.485 284.807 C 169.485 284.495,169.836 284.129,170.264 283.993 C 170.693 283.857,171.534 283.278,172.133 282.705 C 172.834 282.035,173.441 281.747,173.835 281.897 C 174.551 282.170,169.701 277.194,167.279 275.171 C 166.369 274.411,165.666 273.648,165.717 273.475 C 165.767 273.303,165.561 273.162,165.257 273.162 C 164.954 273.162,164.725 273.038,164.749 272.886 C 164.937 271.700,164.449 271.384,163.717 272.217 " stroke="none" fill="#0c20d8" fill-rule="evenodd"></path><path id="path6" d="M199.746 187.316 C 199.748 188.529,199.817 188.981,199.899 188.321 C 199.981 187.660,199.979 186.667,199.895 186.115 C 199.811 185.562,199.744 186.103,199.746 187.316 M282.177 219.477 C 281.815 219.876,281.358 220.103,281.160 219.981 C 280.962 219.859,280.687 219.942,280.548 220.166 C 280.410 220.390,279.312 220.618,278.108 220.673 C 276.904 220.727,275.715 220.964,275.466 221.199 C 275.217 221.433,274.862 221.682,274.678 221.750 C 274.478 221.824,274.530 224.635,274.804 228.676 C 275.059 232.417,275.289 235.271,275.317 235.018 C 275.345 234.766,275.685 234.559,276.072 234.559 C 276.460 234.559,276.860 234.766,276.962 235.018 C 277.075 235.297,277.159 235.229,277.177 234.846 C 277.199 234.357,277.515 234.225,278.564 234.265 C 279.316 234.293,279.986 234.124,280.065 233.886 C 280.144 233.649,280.598 233.456,281.075 233.456 C 281.552 233.456,282.036 233.303,282.152 233.117 C 282.267 232.930,282.856 232.669,283.460 232.536 C 284.064 232.403,284.559 232.125,284.559 231.917 C 284.559 231.709,284.793 231.629,285.080 231.739 C 285.989 232.088,285.990 227.708,285.082 221.480 C 284.767 219.317,283.261 218.279,282.177 219.477 M262.132 226.449 C 261.829 226.613,260.795 226.860,259.835 226.999 C 258.874 227.137,258.088 227.418,258.088 227.622 C 258.088 228.316,256.997 229.088,255.724 229.295 C 255.026 229.408,254.125 229.808,253.723 230.183 C 253.041 230.818,252.980 230.821,252.825 230.230 C 252.734 229.881,252.640 231.040,252.616 232.806 C 252.574 235.985,252.076 240.192,251.456 242.616 C 251.050 244.200,251.297 244.607,252.320 244.044 C 252.763 243.800,253.337 243.593,253.597 243.583 C 253.856 243.574,254.211 243.337,254.385 243.056 C 254.559 242.775,255.215 242.527,255.843 242.504 C 256.470 242.482,256.984 242.329,256.984 242.166 C 256.985 242.002,257.151 241.971,257.353 242.096 C 257.555 242.221,257.721 242.187,257.721 242.020 C 257.721 241.705,260.383 240.441,261.049 240.441 C 261.259 240.441,261.878 239.994,262.425 239.447 C 264.035 237.836,263.759 225.571,262.132 226.449 M240.909 233.824 C 240.909 234.733,240.981 235.106,241.068 234.651 C 241.156 234.196,241.156 233.451,241.068 232.996 C 240.981 232.541,240.909 232.914,240.909 233.824 M238.111 236.643 C 237.573 236.925,237.132 237.042,237.132 236.903 C 237.132 236.764,236.825 236.929,236.450 237.268 C 236.028 237.650,235.514 237.788,235.100 237.629 C 234.584 237.431,234.483 237.509,234.660 237.969 C 234.821 238.389,234.731 238.505,234.356 238.361 C 233.973 238.214,233.812 238.450,233.781 239.207 C 233.756 239.828,233.670 239.994,233.570 239.614 C 233.344 238.747,232.824 238.801,232.532 239.721 C 232.362 240.258,232.093 240.408,231.588 240.248 C 231.193 240.123,230.882 240.197,230.882 240.416 C 230.882 240.632,230.624 240.809,230.309 240.809 C 229.994 240.809,229.823 240.950,229.930 241.123 C 230.037 241.296,229.689 241.355,229.157 241.253 C 228.391 241.106,228.234 241.187,228.408 241.639 C 228.552 242.015,228.069 242.719,226.997 243.694 C 226.101 244.510,225.368 245.353,225.368 245.567 C 225.368 245.781,225.179 245.956,224.949 245.956 C 224.718 245.956,224.318 246.245,224.059 246.599 C 223.800 246.953,223.451 247.249,223.283 247.256 C 222.663 247.282,221.324 248.354,221.324 248.823 C 221.324 249.090,221.170 249.213,220.983 249.098 C 220.796 248.982,219.679 249.249,218.501 249.690 C 216.342 250.500,208.620 250.995,209.052 250.295 C 209.152 250.133,209.065 250.000,208.858 250.000 C 208.651 250.000,208.298 250.344,208.073 250.764 C 207.828 251.221,207.445 251.443,207.118 251.318 C 206.464 251.067,204.412 252.057,204.412 252.623 C 204.412 252.864,204.049 252.930,203.488 252.789 C 202.740 252.601,202.484 252.735,202.138 253.495 C 201.870 254.083,201.615 254.278,201.454 254.017 C 201.263 253.708,200.993 253.709,200.407 254.023 C 199.972 254.256,199.445 254.339,199.234 254.209 C 199.023 254.079,198.530 254.262,198.139 254.617 C 197.727 254.989,197.426 255.082,197.426 254.836 C 197.426 254.603,197.261 254.412,197.059 254.412 C 196.857 254.412,196.691 254.660,196.691 254.963 C 196.691 255.267,196.531 255.515,196.335 255.515 C 195.688 255.515,196.376 256.585,197.185 256.837 C 197.621 256.973,198.061 257.198,198.162 257.336 C 198.515 257.820,202.006 259.335,202.655 259.286 C 203.014 259.259,203.309 259.366,203.309 259.523 C 203.309 260.111,207.659 261.132,209.350 260.941 C 210.313 260.833,211.029 260.903,211.029 261.106 C 211.029 261.542,215.163 261.343,215.491 260.892 C 215.620 260.715,216.171 260.521,216.716 260.461 C 217.261 260.401,217.917 260.066,218.173 259.716 C 218.429 259.365,218.829 259.197,219.062 259.341 C 219.312 259.495,219.485 259.368,219.485 259.029 C 219.485 258.714,219.722 258.456,220.011 258.456 C 220.299 258.456,220.790 258.202,221.100 257.891 C 221.411 257.581,221.755 257.340,221.865 257.356 C 222.457 257.442,224.632 256.861,224.632 256.617 C 224.632 256.459,225.079 256.218,225.624 256.081 C 226.420 255.881,226.511 255.759,226.084 255.465 C 225.680 255.187,225.742 255.152,226.340 255.319 C 226.815 255.452,227.352 255.316,227.691 254.977 C 228.001 254.667,228.484 254.502,228.764 254.610 C 229.045 254.717,229.579 254.469,229.952 254.057 C 230.324 253.646,230.945 253.309,231.331 253.309 C 231.718 253.309,232.374 253.127,232.789 252.904 C 233.397 252.579,233.486 252.597,233.246 252.996 C 233.001 253.403,233.060 253.401,233.569 252.988 C 233.911 252.711,234.191 252.212,234.191 251.880 C 234.191 251.549,234.563 251.114,235.018 250.914 C 235.835 250.556,239.293 244.206,239.324 243.009 C 239.332 242.703,239.669 241.835,240.074 241.080 C 241.803 237.854,240.673 235.301,238.111 236.643 M191.661 268.193 C 189.962 268.765,188.971 270.207,188.971 272.107 C 188.971 273.675,188.978 273.683,189.567 272.842 C 189.989 272.239,190.419 272.039,191.038 272.157 C 191.582 272.261,191.912 272.151,191.912 271.864 C 191.912 271.611,192.325 271.299,192.831 271.173 C 193.336 271.046,193.750 270.780,193.750 270.581 C 193.750 270.383,193.998 270.221,194.301 270.221 C 194.605 270.221,194.853 270.080,194.853 269.909 C 194.853 269.737,195.347 269.583,195.951 269.566 C 196.555 269.549,197.219 269.429,197.428 269.301 C 198.039 268.923,197.491 268.434,196.691 268.644 C 196.206 268.770,195.956 268.655,195.956 268.303 C 195.956 267.656,193.446 267.592,191.661 268.193 M163.717 272.217 C 163.476 272.492,163.380 272.816,163.502 272.939 C 163.625 273.061,163.557 273.162,163.351 273.162 C 163.145 273.162,162.457 273.658,161.823 274.265 C 161.188 274.871,160.502 275.368,160.297 275.368 C 160.093 275.368,159.926 275.533,159.926 275.735 C 159.926 275.938,159.693 276.103,159.407 276.103 C 158.220 276.103,156.235 278.590,156.618 279.597 C 156.896 280.327,165.138 288.807,165.263 288.492 C 165.841 287.042,166.238 286.397,166.552 286.397 C 166.767 286.397,167.285 286.078,167.703 285.689 C 168.121 285.299,168.693 285.069,168.974 285.177 C 169.274 285.292,169.485 285.139,169.485 284.807 C 169.485 284.495,169.836 284.129,170.264 283.993 C 170.693 283.857,171.534 283.278,172.133 282.705 C 172.834 282.035,173.441 281.747,173.835 281.897 C 174.551 282.170,169.701 277.194,167.279 275.171 C 166.369 274.411,165.666 273.648,165.717 273.475 C 165.767 273.303,165.561 273.162,165.257 273.162 C 164.954 273.162,164.725 273.038,164.749 272.886 C 164.937 271.700,164.449 271.384,163.717 272.217 " stroke="none" fill="#0c20d8" fill-rule="evenodd"></path><path id="path7" d="M199.746 187.316 C 199.748 188.529,199.817 188.981,199.899 188.321 C 199.981 187.660,199.979 186.667,199.895 186.115 C 199.811 185.562,199.744 186.103,199.746 187.316 M282.177 219.477 C 281.815 219.876,281.358 220.103,281.160 219.981 C 280.962 219.859,280.687 219.942,280.548 220.166 C 280.410 220.390,279.312 220.618,278.108 220.673 C 276.904 220.727,275.715 220.964,275.466 221.199 C 275.217 221.433,274.862 221.682,274.678 221.750 C 274.478 221.824,274.530 224.635,274.804 228.676 C 275.059 232.417,275.289 235.271,275.317 235.018 C 275.345 234.766,275.685 234.559,276.072 234.559 C 276.460 234.559,276.860 234.766,276.962 235.018 C 277.075 235.297,277.159 235.229,277.177 234.846 C 277.199 234.357,277.515 234.225,278.564 234.265 C 279.316 234.293,279.986 234.124,280.065 233.886 C 280.144 233.649,280.598 233.456,281.075 233.456 C 281.552 233.456,282.036 233.303,282.152 233.117 C 282.267 232.930,282.856 232.669,283.460 232.536 C 284.064 232.403,284.559 232.125,284.559 231.917 C 284.559 231.709,284.793 231.629,285.080 231.739 C 285.989 232.088,285.990 227.708,285.082 221.480 C 284.767 219.317,283.261 218.279,282.177 219.477 M262.132 226.449 C 261.829 226.613,260.795 226.860,259.835 226.999 C 258.874 227.137,258.088 227.418,258.088 227.622 C 258.088 228.316,256.997 229.088,255.724 229.295 C 255.026 229.408,254.125 229.808,253.723 230.183 C 253.041 230.818,252.980 230.821,252.825 230.230 C 252.734 229.881,252.640 231.040,252.616 232.806 C 252.574 235.985,252.076 240.192,251.456 242.616 C 251.050 244.200,251.297 244.607,252.320 244.044 C 252.763 243.800,253.337 243.593,253.597 243.583 C 253.856 243.574,254.211 243.337,254.385 243.056 C 254.559 242.775,255.215 242.527,255.843 242.504 C 256.470 242.482,256.984 242.329,256.984 242.166 C 256.985 242.002,257.151 241.971,257.353 242.096 C 257.555 242.221,257.721 242.187,257.721 242.020 C 257.721 241.705,260.383 240.441,261.049 240.441 C 261.259 240.441,261.878 239.994,262.425 239.447 C 264.035 237.836,263.759 225.571,262.132 226.449 M240.909 233.824 C 240.909 234.733,240.981 235.106,241.068 234.651 C 241.156 234.196,241.156 233.451,241.068 232.996 C 240.981 232.541,240.909 232.914,240.909 233.824 M238.111 236.643 C 237.573 236.925,237.132 237.042,237.132 236.903 C 237.132 236.764,236.825 236.929,236.450 237.268 C 236.028 237.650,235.514 237.788,235.100 237.629 C 234.584 237.431,234.483 237.509,234.660 237.969 C 234.821 238.389,234.731 238.505,234.356 238.361 C 233.973 238.214,233.812 238.450,233.781 239.207 C 233.756 239.828,233.670 239.994,233.570 239.614 C 233.344 238.747,232.824 238.801,232.532 239.721 C 232.362 240.258,232.093 240.408,231.588 240.248 C 231.193 240.123,230.882 240.197,230.882 240.416 C 230.882 240.632,230.624 240.809,230.309 240.809 C 229.994 240.809,229.823 240.950,229.930 241.123 C 230.037 241.296,229.689 241.355,229.157 241.253 C 228.391 241.106,228.234 241.187,228.408 241.639 C 228.552 242.015,228.069 242.719,226.997 243.694 C 226.101 244.510,225.368 245.353,225.368 245.567 C 225.368 245.781,225.179 245.956,224.949 245.956 C 224.718 245.956,224.318 246.245,224.059 246.599 C 223.800 246.953,223.451 247.249,223.283 247.256 C 222.663 247.282,221.324 248.354,221.324 248.823 C 221.324 249.090,221.170 249.213,220.983 249.098 C 220.796 248.982,219.679 249.249,218.501 249.690 C 216.342 250.500,208.620 250.995,209.052 250.295 C 209.152 250.133,209.065 250.000,208.858 250.000 C 208.651 250.000,208.298 250.344,208.073 250.764 C 207.828 251.221,207.445 251.443,207.118 251.318 C 206.464 251.067,204.412 252.057,204.412 252.623 C 204.412 252.864,204.049 252.930,203.488 252.789 C 202.740 252.601,202.484 252.735,202.138 253.495 C 201.870 254.083,201.615 254.278,201.454 254.017 C 201.263 253.708,200.993 253.709,200.407 254.023 C 199.972 254.256,199.445 254.339,199.234 254.209 C 199.023 254.079,198.530 254.262,198.139 254.617 C 197.727 254.989,197.426 255.082,197.426 254.836 C 197.426 254.603,197.261 254.412,197.059 254.412 C 196.857 254.412,196.691 254.660,196.691 254.963 C 196.691 255.267,196.531 255.515,196.335 255.515 C 195.688 255.515,196.376 256.585,197.185 256.837 C 197.621 256.973,198.061 257.198,198.162 257.336 C 198.515 257.820,202.006 259.335,202.655 259.286 C 203.014 259.259,203.309 259.366,203.309 259.523 C 203.309 260.111,207.659 261.132,209.350 260.941 C 210.313 260.833,211.029 260.903,211.029 261.106 C 211.029 261.542,215.163 261.343,215.491 260.892 C 215.620 260.715,216.171 260.521,216.716 260.461 C 217.261 260.401,217.917 260.066,218.173 259.716 C 218.429 259.365,218.829 259.197,219.062 259.341 C 219.312 259.495,219.485 259.368,219.485 259.029 C 219.485 258.714,219.722 258.456,220.011 258.456 C 220.299 258.456,220.790 258.202,221.100 257.891 C 221.411 257.581,221.755 257.340,221.865 257.356 C 222.457 257.442,224.632 256.861,224.632 256.617 C 224.632 256.459,225.079 256.218,225.624 256.081 C 226.420 255.881,226.511 255.759,226.084 255.465 C 225.680 255.187,225.742 255.152,226.340 255.319 C 226.815 255.452,227.352 255.316,227.691 254.977 C 228.001 254.667,228.484 254.502,228.764 254.610 C 229.045 254.717,229.579 254.469,229.952 254.057 C 230.324 253.646,230.945 253.309,231.331 253.309 C 231.718 253.309,232.374 253.127,232.789 252.904 C 233.397 252.579,233.486 252.597,233.246 252.996 C 233.001 253.403,233.060 253.401,233.569 252.988 C 233.911 252.711,234.191 252.212,234.191 251.880 C 234.191 251.549,234.563 251.114,235.018 250.914 C 235.835 250.556,239.293 244.206,239.324 243.009 C 239.332 242.703,239.669 241.835,240.074 241.080 C 241.803 237.854,240.673 235.301,238.111 236.643 M191.661 268.193 C 189.962 268.765,188.971 270.207,188.971 272.107 C 188.971 273.675,188.978 273.683,189.567 272.842 C 189.989 272.239,190.419 272.039,191.038 272.157 C 191.582 272.261,191.912 272.151,191.912 271.864 C 191.912 271.611,192.325 271.299,192.831 271.173 C 193.336 271.046,193.750 270.780,193.750 270.581 C 193.750 270.383,193.998 270.221,194.301 270.221 C 194.605 270.221,194.853 270.080,194.853 269.909 C 194.853 269.737,195.347 269.583,195.951 269.566 C 196.555 269.549,197.219 269.429,197.428 269.301 C 198.039 268.923,197.491 268.434,196.691 268.644 C 196.206 268.770,195.956 268.655,195.956 268.303 C 195.956 267.656,193.446 267.592,191.661 268.193 M163.717 272.217 C 163.476 272.492,163.380 272.816,163.502 272.939 C 163.625 273.061,163.557 273.162,163.351 273.162 C 163.145 273.162,162.457 273.658,161.823 274.265 C 161.188 274.871,160.502 275.368,160.297 275.368 C 160.093 275.368,159.926 275.533,159.926 275.735 C 159.926 275.938,159.693 276.103,159.407 276.103 C 158.220 276.103,156.235 278.590,156.618 279.597 C 156.896 280.327,165.138 288.807,165.263 288.492 C 165.841 287.042,166.238 286.397,166.552 286.397 C 166.767 286.397,167.285 286.078,167.703 285.689 C 168.121 285.299,168.693 285.069,168.974 285.177 C 169.274 285.292,169.485 285.139,169.485 284.807 C 169.485 284.495,169.836 284.129,170.264 283.993 C 170.693 283.857,171.534 283.278,172.133 282.705 C 172.834 282.035,173.441 281.747,173.835 281.897 C 174.551 282.170,169.701 277.194,167.279 275.171 C 166.369 274.411,165.666 273.648,165.717 273.475 C 165.767 273.303,165.561 273.162,165.257 273.162 C 164.954 273.162,164.725 273.038,164.749 272.886 C 164.937 271.700,164.449 271.384,163.717 272.217 " stroke="none" fill="#0c20d8" fill-rule="evenodd"></path><path id="path8" d="M199.746 187.316 C 199.748 188.529,199.817 188.981,199.899 188.321 C 199.981 187.660,199.979 186.667,199.895 186.115 C 199.811 185.562,199.744 186.103,199.746 187.316 M282.177 219.477 C 281.815 219.876,281.358 220.103,281.160 219.981 C 280.962 219.859,280.687 219.942,280.548 220.166 C 280.410 220.390,279.312 220.618,278.108 220.673 C 276.904 220.727,275.715 220.964,275.466 221.199 C 275.217 221.433,274.862 221.682,274.678 221.750 C 274.478 221.824,274.530 224.635,274.804 228.676 C 275.059 232.417,275.289 235.271,275.317 235.018 C 275.345 234.766,275.685 234.559,276.072 234.559 C 276.460 234.559,276.860 234.766,276.962 235.018 C 277.075 235.297,277.159 235.229,277.177 234.846 C 277.199 234.357,277.515 234.225,278.564 234.265 C 279.316 234.293,279.986 234.124,280.065 233.886 C 280.144 233.649,280.598 233.456,281.075 233.456 C 281.552 233.456,282.036 233.303,282.152 233.117 C 282.267 232.930,282.856 232.669,283.460 232.536 C 284.064 232.403,284.559 232.125,284.559 231.917 C 284.559 231.709,284.793 231.629,285.080 231.739 C 285.989 232.088,285.990 227.708,285.082 221.480 C 284.767 219.317,283.261 218.279,282.177 219.477 M262.132 226.449 C 261.829 226.613,260.795 226.860,259.835 226.999 C 258.874 227.137,258.088 227.418,258.088 227.622 C 258.088 228.316,256.997 229.088,255.724 229.295 C 255.026 229.408,254.125 229.808,253.723 230.183 C 253.041 230.818,252.980 230.821,252.825 230.230 C 252.734 229.881,252.640 231.040,252.616 232.806 C 252.574 235.985,252.076 240.192,251.456 242.616 C 251.050 244.200,251.297 244.607,252.320 244.044 C 252.763 243.800,253.337 243.593,253.597 243.583 C 253.856 243.574,254.211 243.337,254.385 243.056 C 254.559 242.775,255.215 242.527,255.843 242.504 C 256.470 242.482,256.984 242.329,256.984 242.166 C 256.985 242.002,257.151 241.971,257.353 242.096 C 257.555 242.221,257.721 242.187,257.721 242.020 C 257.721 241.705,260.383 240.441,261.049 240.441 C 261.259 240.441,261.878 239.994,262.425 239.447 C 264.035 237.836,263.759 225.571,262.132 226.449 M240.909 233.824 C 240.909 234.733,240.981 235.106,241.068 234.651 C 241.156 234.196,241.156 233.451,241.068 232.996 C 240.981 232.541,240.909 232.914,240.909 233.824 M238.111 236.643 C 237.573 236.925,237.132 237.042,237.132 236.903 C 237.132 236.764,236.825 236.929,236.450 237.268 C 236.028 237.650,235.514 237.788,235.100 237.629 C 234.584 237.431,234.483 237.509,234.660 237.969 C 234.821 238.389,234.731 238.505,234.356 238.361 C 233.973 238.214,233.812 238.450,233.781 239.207 C 233.756 239.828,233.670 239.994,233.570 239.614 C 233.344 238.747,232.824 238.801,232.532 239.721 C 232.362 240.258,232.093 240.408,231.588 240.248 C 231.193 240.123,230.882 240.197,230.882 240.416 C 230.882 240.632,230.624 240.809,230.309 240.809 C 229.994 240.809,229.823 240.950,229.930 241.123 C 230.037 241.296,229.689 241.355,229.157 241.253 C 228.391 241.106,228.234 241.187,228.408 241.639 C 228.552 242.015,228.069 242.719,226.997 243.694 C 226.101 244.510,225.368 245.353,225.368 245.567 C 225.368 245.781,225.179 245.956,224.949 245.956 C 224.718 245.956,224.318 246.245,224.059 246.599 C 223.800 246.953,223.451 247.249,223.283 247.256 C 222.663 247.282,221.324 248.354,221.324 248.823 C 221.324 249.090,221.170 249.213,220.983 249.098 C 220.796 248.982,219.679 249.249,218.501 249.690 C 216.342 250.500,208.620 250.995,209.052 250.295 C 209.152 250.133,209.065 250.000,208.858 250.000 C 208.651 250.000,208.298 250.344,208.073 250.764 C 207.828 251.221,207.445 251.443,207.118 251.318 C 206.464 251.067,204.412 252.057,204.412 252.623 C 204.412 252.864,204.049 252.930,203.488 252.789 C 202.740 252.601,202.484 252.735,202.138 253.495 C 201.870 254.083,201.615 254.278,201.454 254.017 C 201.263 253.708,200.993 253.709,200.407 254.023 C 199.972 254.256,199.445 254.339,199.234 254.209 C 199.023 254.079,198.530 254.262,198.139 254.617 C 197.727 254.989,197.426 255.082,197.426 254.836 C 197.426 254.603,197.261 254.412,197.059 254.412 C 196.857 254.412,196.691 254.660,196.691 254.963 C 196.691 255.267,196.531 255.515,196.335 255.515 C 195.688 255.515,196.376 256.585,197.185 256.837 C 197.621 256.973,198.061 257.198,198.162 257.336 C 198.515 257.820,202.006 259.335,202.655 259.286 C 203.014 259.259,203.309 259.366,203.309 259.523 C 203.309 260.111,207.659 261.132,209.350 260.941 C 210.313 260.833,211.029 260.903,211.029 261.106 C 211.029 261.542,215.163 261.343,215.491 260.892 C 215.620 260.715,216.171 260.521,216.716 260.461 C 217.261 260.401,217.917 260.066,218.173 259.716 C 218.429 259.365,218.829 259.197,219.062 259.341 C 219.312 259.495,219.485 259.368,219.485 259.029 C 219.485 258.714,219.722 258.456,220.011 258.456 C 220.299 258.456,220.790 258.202,221.100 257.891 C 221.411 257.581,221.755 257.340,221.865 257.356 C 222.457 257.442,224.632 256.861,224.632 256.617 C 224.632 256.459,225.079 256.218,225.624 256.081 C 226.420 255.881,226.511 255.759,226.084 255.465 C 225.680 255.187,225.742 255.152,226.340 255.319 C 226.815 255.452,227.352 255.316,227.691 254.977 C 228.001 254.667,228.484 254.502,228.764 254.610 C 229.045 254.717,229.579 254.469,229.952 254.057 C 230.324 253.646,230.945 253.309,231.331 253.309 C 231.718 253.309,232.374 253.127,232.789 252.904 C 233.397 252.579,233.486 252.597,233.246 252.996 C 233.001 253.403,233.060 253.401,233.569 252.988 C 233.911 252.711,234.191 252.212,234.191 251.880 C 234.191 251.549,234.563 251.114,235.018 250.914 C 235.835 250.556,239.293 244.206,239.324 243.009 C 239.332 242.703,239.669 241.835,240.074 241.080 C 241.803 237.854,240.673 235.301,238.111 236.643 M191.661 268.193 C 189.962 268.765,188.971 270.207,188.971 272.107 C 188.971 273.675,188.978 273.683,189.567 272.842 C 189.989 272.239,190.419 272.039,191.038 272.157 C 191.582 272.261,191.912 272.151,191.912 271.864 C 191.912 271.611,192.325 271.299,192.831 271.173 C 193.336 271.046,193.750 270.780,193.750 270.581 C 193.750 270.383,193.998 270.221,194.301 270.221 C 194.605 270.221,194.853 270.080,194.853 269.909 C 194.853 269.737,195.347 269.583,195.951 269.566 C 196.555 269.549,197.219 269.429,197.428 269.301 C 198.039 268.923,197.491 268.434,196.691 268.644 C 196.206 268.770,195.956 268.655,195.956 268.303 C 195.956 267.656,193.446 267.592,191.661 268.193 M163.717 272.217 C 163.476 272.492,163.380 272.816,163.502 272.939 C 163.625 273.061,163.557 273.162,163.351 273.162 C 163.145 273.162,162.457 273.658,161.823 274.265 C 161.188 274.871,160.502 275.368,160.297 275.368 C 160.093 275.368,159.926 275.533,159.926 275.735 C 159.926 275.938,159.693 276.103,159.407 276.103 C 158.220 276.103,156.235 278.590,156.618 279.597 C 156.896 280.327,165.138 288.807,165.263 288.492 C 165.841 287.042,166.238 286.397,166.552 286.397 C 166.767 286.397,167.285 286.078,167.703 285.689 C 168.121 285.299,168.693 285.069,168.974 285.177 C 169.274 285.292,169.485 285.139,169.485 284.807 C 169.485 284.495,169.836 284.129,170.264 283.993 C 170.693 283.857,171.534 283.278,172.133 282.705 C 172.834 282.035,173.441 281.747,173.835 281.897 C 174.551 282.170,169.701 277.194,167.279 275.171 C 166.369 274.411,165.666 273.648,165.717 273.475 C 165.767 273.303,165.561 273.162,165.257 273.162 C 164.954 273.162,164.725 273.038,164.749 272.886 C 164.937 271.700,164.449 271.384,163.717 272.217 " stroke="none" fill="#0c20d8" fill-rule="evenodd"></path></g></svg>